<svg aria-hidden="true" style="position: absolute; width: 0; height: 0; overflow: hidden;" version="1.1" xmlns="http://www.w3.org/2000/svg" xmlns:xlink="http://www.w3.org/1999/xlink">
<defs>
<symbol id="icon-banknote" viewBox="0 0 32 32">
<path d="M31.415 10.586l-10-10c-0.496-0.496-1.215-0.695-1.896-0.527-0.359 0.088-0.68 0.273-0.934 0.527-0.227 0.227-0.398 0.508-0.496 0.822-0.453 1.469-1.236 2.746-2.395 3.904-1.548 1.547-3.564 2.719-5.697 3.958-2.264 1.312-4.603 2.672-6.52 4.588-1.629 1.631-2.738 3.445-3.388 5.551-0.219 0.711-0.028 1.48 0.496 2.006l10 10c0.496 0.496 1.215 0.695 1.896 0.527 0.359-0.090 0.68-0.273 0.934-0.527 0.227-0.227 0.398-0.508 0.496-0.824 0.454-1.469 1.237-2.746 2.397-3.904 1.547-1.547 3.562-2.717 5.697-3.955 2.262-1.314 4.602-2.674 6.518-4.59 1.629-1.629 2.738-3.445 3.389-5.551 0.218-0.71 0.026-1.482-0.497-2.005zM12 30c-3.312-3.312-6.688-6.689-10-10 2.842-9.201 15.16-8.799 18-18 3.312 3.311 6.689 6.688 10.002 10-2.843 9.199-15.161 8.799-18.002 18zM19.562 14.9c-0.326-0.273-0.654-0.459-0.984-0.551-0.328-0.092-0.656-0.129-0.988-0.105-0.328 0.025-0.664 0.1-1 0.229-0.336 0.131-0.674 0.273-1.014 0.438-0.537-0.617-1.074-1.227-1.611-1.793 0.242-0.219 0.477-0.33 0.703-0.338 0.227-0.010 0.445 0.014 0.652 0.066 0.211 0.053 0.404 0.098 0.582 0.133 0.18 0.035 0.336-0.004 0.473-0.119 0.145-0.125 0.225-0.287 0.236-0.482 0.010-0.197-0.064-0.389-0.229-0.576-0.211-0.242-0.465-0.389-0.77-0.443-0.301-0.053-0.609-0.049-0.93 0.021-0.316 0.072-0.617 0.191-0.902 0.359s-0.514 0.34-0.684 0.508c-0.065-0.062-0.13-0.123-0.195-0.184-0.072-0.066-0.162-0.102-0.27-0.1-0.109 0-0.199 0.047-0.273 0.133-0.072 0.084-0.105 0.182-0.092 0.285 0.010 0.107 0.053 0.189 0.127 0.252 0.065 0.055 0.13 0.109 0.195 0.166-0.256 0.309-0.467 0.65-0.633 1.010-0.168 0.361-0.268 0.719-0.305 1.066-0.039 0.35-0.002 0.67 0.105 0.967 0.107 0.299 0.305 0.553 0.594 0.793 0.471 0.391 1.025 0.557 1.668 0.52 0.641-0.039 1.332-0.23 2.075-0.629 0.59 0.682 1.182 1.359 1.773 1.988-0.25 0.211-0.469 0.332-0.662 0.371-0.193 0.041-0.365 0.037-0.521-0.010-0.156-0.049-0.301-0.119-0.434-0.209-0.133-0.092-0.264-0.17-0.395-0.234-0.129-0.064-0.262-0.1-0.398-0.102s-0.281 0.064-0.441 0.201c-0.164 0.143-0.246 0.309-0.246 0.496s0.086 0.375 0.254 0.566c0.17 0.191 0.391 0.352 0.658 0.479s0.569 0.207 0.901 0.229c0.332 0.023 0.682-0.027 1.051-0.164 0.371-0.135 0.738-0.379 1.1-0.742 0.174 0.17 0.35 0.332 0.525 0.488 0.074 0.064 0.164 0.096 0.273 0.088 0.105-0.004 0.197-0.053 0.27-0.141 0.074-0.090 0.105-0.189 0.094-0.293-0.010-0.105-0.053-0.186-0.125-0.244-0.176-0.141-0.352-0.289-0.527-0.445 0.299-0.367 0.539-0.754 0.717-1.137 0.178-0.385 0.283-0.756 0.318-1.1 0.035-0.346-0.006-0.658-0.119-0.941-0.112-0.287-0.311-0.533-0.596-0.77zM13.971 15.578c-0.283 0.012-0.53-0.082-0.746-0.291-0.092-0.088-0.156-0.195-0.195-0.322-0.041-0.127-0.055-0.266-0.039-0.418 0.014-0.15 0.059-0.307 0.137-0.465 0.074-0.158 0.184-0.316 0.324-0.469 0.507 0.504 1.013 1.057 1.52 1.629-0.384 0.211-0.718 0.324-1.001 0.336zM18.688 17.58c-0.090 0.166-0.193 0.314-0.314 0.443-0.561-0.566-1.121-1.188-1.68-1.826 0.143-0.064 0.293-0.131 0.455-0.199s0.324-0.113 0.486-0.141c0.166-0.025 0.33-0.018 0.494 0.021 0.162 0.041 0.316 0.129 0.459 0.268 0.141 0.141 0.23 0.287 0.266 0.445 0.039 0.16 0.041 0.322 0.014 0.488-0.029 0.167-0.088 0.333-0.18 0.501zM14.717 22.18c0.197-0.159 0.487-0.151 0.668 0.033 0.196 0.195 0.196 0.514 0 0.709-0.016 0.016-0.033 0.027-0.051 0.041l0.002 0.002c-0.633 0.481-1.153 0.914-1.714 1.475-0.507 0.506-0.965 1.039-1.361 1.58l-0.639 0.875c-0.020 0.036-0.044 0.069-0.074 0.1-0.196 0.195-0.515 0.195-0.71 0-0.17-0.17-0.191-0.432-0.066-0.627l-0.002-0.002 0.684-0.934c0.427-0.584 0.918-1.156 1.461-1.699 0.565-0.567 1.175-1.073 1.8-1.553h0.002zM18.378 7.715c0.506-0.506 0.963-1.037 1.36-1.581l0.664-0.91c0.024-0.043 0.051-0.086 0.088-0.123 0.197-0.197 0.516-0.197 0.713 0 0.187 0.188 0.195 0.485 0.025 0.684l0.002 0.002-0.684 0.938c-0.428 0.584-0.918 1.154-1.461 1.697-0.565 0.565-1.174 1.073-1.799 1.553l-0.004-0.002c-0.199 0.183-0.508 0.179-0.699-0.014-0.197-0.197-0.197-0.518 0-0.715 0.035-0.037 0.076-0.063 0.117-0.086 0.588-0.449 1.155-0.92 1.678-1.443z"></path>
</symbol>
<symbol id="icon-warning" viewBox="0 0 32 32">
<path d="M14.424 6.148l-10.785 17.449c-1.165 1.885-0.316 3.403 1.889 3.403h20.944c2.204 0 3.050-1.523 1.889-3.403l-10.785-17.449c-0.868-1.404-2.281-1.408-3.151 0zM15.353 6.523c0.347-0.561 0.912-0.559 1.258 0l11.005 17.783c0.579 0.936 0.146 1.695-0.942 1.695h-21.384c-1.099 0-1.524-0.754-0.942-1.695l11.005-17.783zM16 12c-0.552 0-1 0.453-1 0.997v6.006c0 0.551 0.444 0.997 1 0.997 0.552 0 1-0.453 1-0.997v-6.006c0-0.551-0.444-0.997-1-0.997v0zM16 24c0.552 0 1-0.448 1-1s-0.448-1-1-1c-0.552 0-1 0.448-1 1s0.448 1 1 1v0z"></path>
</symbol>
<symbol id="icon-sad-face" viewBox="0 0 32 32">
<path d="M16.5 29v0c-6.904 0-12.5-5.596-12.5-12.5s5.596-12.5 12.5-12.5c6.904 0 12.5 5.596 12.5 12.5s-5.596 12.5-12.5 12.5zM16.5 28c6.351 0 11.5-5.149 11.5-11.5s-5.149-11.5-11.5-11.5c-6.351 0-11.5 5.149-11.5 11.5s5.149 11.5 11.5 11.5v0zM12 15c0.552 0 1-0.448 1-1s-0.448-1-1-1c-0.552 0-1 0.448-1 1s0.448 1 1 1v0zM21 15c0.552 0 1-0.448 1-1s-0.448-1-1-1c-0.552 0-1 0.448-1 1s0.448 1 1 1v0zM16.481 21c-3.481 0-5.481 2-5.481 2v-1c0 0 2-2 5.481-2s5.519 2 5.519 2v1c0 0-2.037-2-5.519-2v0z"></path>
</symbol>
<symbol id="icon-credit-card" viewBox="0 0 32 32">
<path d="M30 4h-28c-1.104 0-2 0.896-2 2v20c0 1.104 0.896 2 2 2h28c1.104 0 2-0.896 2-2v-20c0-1.104-0.896-2-2-2zM3 6h26c0.553 0 1 0.447 1 1v3h-28v-3c0-0.553 0.447-1 1-1zM29 26h-26c-0.553 0-1-0.447-1-1v-9h28v9c0 0.553-0.447 1-1 1z"></path>
</symbol>
<symbol id="icon-location" viewBox="0 0 32 32">
<path d="M16 0c-5.523 0-10 4.477-10 10 0 10 10 22 10 22s10-12 10-22c0-5.523-4.477-10-10-10zM16 16c-3.314 0-6-2.686-6-6s2.686-6 6-6 6 2.686 6 6-2.686 6-6 6z"></path>
</symbol>
<symbol id="icon-checkbox-checked" viewBox="0 0 32 32">
<path d="M28 0h-24c-2.2 0-4 1.8-4 4v24c0 2.2 1.8 4 4 4h24c2.2 0 4-1.8 4-4v-24c0-2.2-1.8-4-4-4zM14 24.828l-7.414-7.414 2.828-2.828 4.586 4.586 9.586-9.586 2.828 2.828-12.414 12.414z"></path>
</symbol>
<symbol id="icon-user" viewBox="0 0 32 32">
<path stroke-linejoin="round" stroke-linecap="round" stroke-miterlimit="4" stroke-width="2.6667" d="M26.667 28v-2.667c0-1.415-0.562-2.771-1.562-3.771s-2.357-1.562-3.771-1.562h-10.667c-1.415 0-2.771 0.562-3.771 1.562s-1.562 2.357-1.562 3.771v2.667"></path>
<path stroke-linejoin="round" stroke-linecap="round" stroke-miterlimit="4" stroke-width="2.6667" d="M16 14.667c2.945 0 5.333-2.388 5.333-5.333s-2.388-5.333-5.333-5.333c-2.946 0-5.333 2.388-5.333 5.333s2.388 5.333 5.333 5.333z"></path>
</symbol>
<symbol id="icon-phone" viewBox="0 0 32 32">
<path stroke-linejoin="round" stroke-linecap="round" stroke-miterlimit="4" stroke-width="2.6667" d="M29.333 22.56v4c0.001 0.371-0.075 0.739-0.223 1.079s-0.367 0.646-0.641 0.897c-0.274 0.251-0.597 0.442-0.948 0.561s-0.725 0.163-1.094 0.13c-4.103-0.446-8.044-1.848-11.507-4.093-3.222-2.047-5.953-4.778-8-8-2.253-3.478-3.656-7.439-4.093-11.56-0.033-0.369 0.010-0.74 0.129-1.091s0.308-0.673 0.558-0.947c0.25-0.273 0.553-0.492 0.892-0.641s0.705-0.227 1.075-0.227h4c0.647-0.006 1.274 0.223 1.765 0.645s0.811 1.008 0.902 1.649c0.169 1.28 0.482 2.537 0.933 3.747 0.179 0.477 0.218 0.996 0.112 1.495s-0.353 0.956-0.712 1.319l-1.693 1.693c1.898 3.338 4.662 6.102 8 8l1.693-1.693c0.362-0.359 0.82-0.606 1.319-0.712s1.017-0.067 1.495 0.112c1.21 0.451 2.467 0.765 3.747 0.933 0.648 0.091 1.239 0.418 1.662 0.917s0.647 1.136 0.631 1.79z"></path>
</symbol>
<symbol id="icon-mail" viewBox="0 0 32 32">
<path stroke-linejoin="round" stroke-linecap="round" stroke-miterlimit="4" stroke-width="2.6667" d="M5.333 5.333h21.333c1.467 0 2.667 1.2 2.667 2.667v16c0 1.467-1.2 2.667-2.667 2.667h-21.333c-1.467 0-2.667-1.2-2.667-2.667v-16c0-1.467 1.2-2.667 2.667-2.667z"></path>
<path stroke-linejoin="round" stroke-linecap="round" stroke-miterlimit="4" stroke-width="2.6667" d="M29.333 8l-13.333 9.333-13.333-9.333"></path>
</symbol>
<symbol id="icon-menu" viewBox="0 0 32 32">
<path stroke-linejoin="round" stroke-linecap="round" stroke-miterlimit="4" stroke-width="2.2857" d="M4 16h24M4 8h24M4 24h24"></path>
</symbol>
<symbol id="icon-close-black" viewBox="0 0 32 32">
<path d="M32 3.223l-3.223-3.223-12.777 12.777-12.777-12.777-3.223 3.223 12.777 12.777-12.777 12.777 3.223 3.223 12.777-12.777 12.777 12.777 3.223-3.223-12.777-12.777 12.777-12.777z"></path>
</symbol>
<symbol id="icon-facebook" viewBox="0 0 32 32">
<path d="M21.329 5.313h2.921v-5.088c-0.504-0.069-2.237-0.225-4.256-0.225-4.212 0-7.097 2.649-7.097 7.519v4.481h-4.648v5.688h4.648v14.312h5.699v-14.311h4.46l0.708-5.688h-5.169v-3.919c0.001-1.644 0.444-2.769 2.735-2.769z"></path>
</symbol>
<symbol id="icon-instagram" viewBox="0 0 32 32">
<path d="M31.969 9.408c-0.075-1.7-0.35-2.869-0.744-3.882-0.406-1.075-1.031-2.038-1.85-2.838-0.8-0.813-1.769-1.444-2.832-1.844-1.019-0.394-2.182-0.669-3.882-0.744-1.713-0.081-2.257-0.1-6.601-0.1s-4.888 0.019-6.595 0.094c-1.7 0.075-2.869 0.35-3.882 0.744-1.075 0.406-2.038 1.031-2.838 1.85-0.813 0.8-1.444 1.769-1.844 2.832-0.394 1.019-0.669 2.182-0.744 3.882-0.081 1.713-0.1 2.257-0.1 6.601s0.019 4.888 0.094 6.595c0.075 1.7 0.35 2.869 0.744 3.882 0.406 1.075 1.038 2.038 1.85 2.838 0.8 0.813 1.769 1.444 2.832 1.844 1.019 0.394 2.182 0.669 3.882 0.744 1.706 0.075 2.25 0.094 6.595 0.094s4.888-0.019 6.595-0.094c1.7-0.075 2.869-0.35 3.882-0.744 2.151-0.831 3.851-2.532 4.682-4.682 0.394-1.019 0.669-2.182 0.744-3.882 0.075-1.707 0.094-2.25 0.094-6.595s-0.006-4.888-0.081-6.595zM29.087 22.473c-0.069 1.563-0.331 2.407-0.55 2.969-0.538 1.394-1.644 2.5-3.038 3.038-0.563 0.219-1.413 0.481-2.969 0.55-1.688 0.075-2.194 0.094-6.464 0.094s-4.782-0.019-6.464-0.094c-1.563-0.069-2.407-0.331-2.969-0.55-0.694-0.256-1.325-0.663-1.838-1.194-0.531-0.519-0.938-1.144-1.194-1.838-0.219-0.563-0.481-1.413-0.55-2.969-0.075-1.688-0.094-2.194-0.094-6.464s0.019-4.782 0.094-6.464c0.069-1.563 0.331-2.407 0.55-2.969 0.256-0.694 0.663-1.325 1.2-1.838 0.519-0.531 1.144-0.938 1.838-1.194 0.563-0.219 1.413-0.481 2.969-0.55 1.688-0.075 2.194-0.094 6.464-0.094 4.276 0 4.782 0.019 6.464 0.094 1.563 0.069 2.407 0.331 2.969 0.55 0.694 0.256 1.325 0.662 1.838 1.194 0.531 0.519 0.938 1.144 1.194 1.838 0.219 0.563 0.481 1.413 0.55 2.969 0.075 1.688 0.094 2.194 0.094 6.464s-0.019 4.77-0.094 6.458z"></path>
<path d="M16.059 7.783c-4.538 0-8.22 3.682-8.22 8.22s3.682 8.22 8.22 8.22c4.538 0 8.22-3.682 8.22-8.22s-3.682-8.22-8.22-8.22zM16.059 21.335c-2.944 0-5.332-2.388-5.332-5.332s2.388-5.332 5.332-5.332c2.944 0 5.332 2.388 5.332 5.332s-2.388 5.332-5.332 5.332z"></path>
<path d="M26.524 7.458c0 1.060-0.859 1.919-1.919 1.919s-1.919-0.859-1.919-1.919c0-1.060 0.859-1.919 1.919-1.919s1.919 0.859 1.919 1.919z"></path>
</symbol>
<symbol id="icon-linkedin" viewBox="0 0 32 32">
<path d="M31.992 32v-0.001h0.008v-11.736c0-5.741-1.236-10.164-7.948-10.164-3.227 0-5.392 1.771-6.276 3.449h-0.093v-2.913h-6.364v21.364h6.627v-10.579c0-2.785 0.528-5.479 3.977-5.479 3.399 0 3.449 3.179 3.449 5.657v10.401h6.62z"></path>
<path d="M0.528 10.636h6.635v21.364h-6.635v-21.364z"></path>
<path d="M3.843-0c-2.121 0-3.843 1.721-3.843 3.843s1.721 3.879 3.843 3.879c2.121 0 3.843-1.757 3.843-3.879-0.001-2.121-1.723-3.843-3.843-3.843v0z"></path>
</symbol>
<symbol id="icon-twitter" viewBox="0 0 32 32">
<path d="M32 6.078c-1.19 0.522-2.458 0.868-3.78 1.036 1.36-0.812 2.398-2.088 2.886-3.626-1.268 0.756-2.668 1.29-4.16 1.588-1.204-1.282-2.92-2.076-4.792-2.076-3.632 0-6.556 2.948-6.556 6.562 0 0.52 0.044 1.020 0.152 1.496-5.454-0.266-10.28-2.88-13.522-6.862-0.566 0.982-0.898 2.106-0.898 3.316 0 2.272 1.17 4.286 2.914 5.452-1.054-0.020-2.088-0.326-2.964-0.808 0 0.020 0 0.046 0 0.072 0 3.188 2.274 5.836 5.256 6.446-0.534 0.146-1.116 0.216-1.72 0.216-0.42 0-0.844-0.024-1.242-0.112 0.85 2.598 3.262 4.508 6.13 4.57-2.232 1.746-5.066 2.798-8.134 2.798-0.538 0-1.054-0.024-1.57-0.090 2.906 1.874 6.35 2.944 10.064 2.944 12.072 0 18.672-10 18.672-18.668 0-0.29-0.010-0.57-0.024-0.848 1.302-0.924 2.396-2.078 3.288-3.406z"></path>
</symbol>
</defs>
</svg>
